<svg id="Layer_1" data-name="Layer 1" xmlns="http://www.w3.org/2000/svg" viewBox="0 0 60 60"><defs><style>.cls-1{fill:#fdd04b;}</style></defs><title>logoArtboard 1logoS</title><path class="cls-1" d="M31,55.08h6.76a1.24,1.24,0,0,0,0-.27l0-12.21c0-.85.78-1.35,1.69-1.31l18.55.1h.17V34.62L37.89,4.83H31.11a.69.69,0,0,0-.05.24m6.79,13.8a1.61,1.61,0,0,1,2.93-.77l7,10,3,4.44a1.48,1.48,0,0,1-1.33,2.29H39.23A1.91,1.91,0,0,1,37.8,33"/><path class="cls-1" d="M28.94,5.16a1,1,0,0,0,0-.24H22.11L1.76,34.71v6.58h7.5l11.29,0a1.46,1.46,0,0,1,1.66,1.39V55.17h6.85M22.2,33.07a1.83,1.83,0,0,1-1.38,1.76H10.61a1.45,1.45,0,0,1-1.33-2.24l3-4.43,7-10a1.61,1.61,0,0,1,2.93.76"/></svg>